<svg width="354" height="354" viewBox="0 0 354 354" fill="none" xmlns="http://www.w3.org/2000/svg">
<path d="M343.764 353.764H10C4.477 353.764 0 349.287 0 343.764V10.0002C0 4.47714 4.477 0.000152588 10 0.000152588H343.764C349.287 0.000152588 353.764 4.47714 353.764 10.0002V343.764C353.764 349.287 349.287 353.764 343.764 353.764Z" fill="white"/>
<path d="M272.192 113.636C262.923 96.4581 250.074 82.985 233.645 73.1931C217.216 63.3881 198.142 58.497 176.448 58.497C160.443 58.497 145.748 61.292 132.375 66.868C119.002 72.457 107.462 80.3531 97.7819 90.5701C88.0889 100.787 80.5669 112.838 75.1899 126.747C69.8139 140.644 67.1309 156.025 67.1309 172.866C67.1309 195.196 71.8219 215.006 81.1909 232.271C90.5589 249.549 103.57 263.021 120.212 272.714C136.853 282.407 155.915 287.248 177.396 287.248C189.197 287.248 200.312 285.663 210.741 282.507C217.69 280.399 224.201 277.692 230.264 274.349C229.591 273.139 228.892 271.941 228.156 270.768C223.341 263.071 216.979 256.198 209.531 250.821C206.026 252.655 202.371 254.214 198.566 255.499C192.042 257.707 184.981 258.818 177.396 258.818C162.239 258.818 148.704 255.125 136.803 247.752C124.902 240.38 115.584 230.275 108.835 217.426C102.098 204.577 98.7299 189.72 98.7299 172.866C98.7299 156.025 102.048 141.168 108.685 128.319C115.322 115.47 124.528 105.365 136.329 97.993C148.118 90.62 161.491 86.927 176.448 86.927C191.829 86.927 205.365 90.62 217.053 97.993C228.742 105.365 237.911 115.47 244.548 128.319C251.172 141.168 254.49 156.025 254.49 172.866C254.49 183.832 253.068 193.886 250.224 203.043C249.189 206.399 247.978 209.629 246.619 212.736C251.022 216.852 259.942 225.784 268.911 238.184C273.065 231.41 276.521 223.963 279.303 215.842C283.831 202.569 286.089 188.248 286.089 172.866C286.089 150.549 281.461 130.801 272.192 113.636Z" fill="#1A6FD4"/>
<path d="M263.352 242.206C254.732 230.29 246.233 221.767 241.933 217.747C240.309 216.225 239.35 215.411 239.341 215.403L238.846 214.94C221.204 196.73 184.562 193.102 169.424 192.386V231.383C181.829 232.086 192.717 233.65 203.954 239.382C207.274 241.076 210.504 243.055 213.555 245.263C221.591 251.066 228.654 258.628 233.972 267.128C234.718 268.317 235.467 269.589 236.258 271.01C240.975 279.461 244.38 288.772 246.101 297.931C246.875 302.117 247.414 305.377 247.766 307.943H287.775C287.522 281.359 274.615 257.771 263.352 242.206Z" fill="#00C896"/>
<path d="M191.265 214.435C186.937 213.167 184.249 212.718 184.223 212.713L184.827 209.02C184.944 209.039 187.745 209.504 192.318 210.844L191.265 214.435Z" fill="white"/>
<path d="M219.875 227.613C215.497 224.776 210.841 222.214 206.036 219.999L207.602 216.6C212.569 218.89 217.383 221.538 221.911 224.472L219.875 227.613ZM243.371 248.507C240.059 244.473 236.381 240.654 232.439 237.155L234.923 234.356C239.012 237.984 242.827 241.947 246.263 246.133L243.371 248.507ZM259.28 275.619C257.313 270.681 254.99 265.91 252.373 261.439L255.604 259.55C258.314 264.182 260.721 269.123 262.756 274.234L259.28 275.619Z" fill="white"/>
<path d="M265.668 297.906C265.212 295.473 264.685 293.047 264.102 290.694L267.735 289.794C268.335 292.216 268.877 294.714 269.346 297.216L265.668 297.906Z" fill="white"/>
</svg>
