<svg width="28" height="28" viewBox="0 0 28 28" fill="none" xmlns="http://www.w3.org/2000/svg">
<g clip-path="url(#clip0_177_1090)">
<path d="M10.5 21C10.5 21.9283 10.8687 22.8185 11.5251 23.4749C12.1815 24.1313 13.0717 24.5 14 24.5C14.9283 24.5 15.8185 24.1313 16.4749 23.4749C17.1313 22.8185 17.5 21.9283 17.5 21" stroke="#1A6FD4" stroke-width="2" stroke-linecap="round" stroke-linejoin="round"/>
<path d="M20.125 2.625C21.8147 3.70313 23.1851 5.21369 24.0942 7" stroke="#1A6FD4" stroke-width="2" stroke-linecap="round" stroke-linejoin="round"/>
<path d="M3.90576 7C4.81485 5.21369 6.18531 3.70313 7.87498 2.625" stroke="#1A6FD4" stroke-width="2" stroke-linecap="round" stroke-linejoin="round"/>
<path d="M6.12499 12.25C6.12499 10.1614 6.95467 8.15838 8.43152 6.68153C9.90837 5.20469 11.9114 4.375 14 4.375C16.0886 4.375 18.0916 5.20469 19.5684 6.68153C21.0453 8.15838 21.875 10.1614 21.875 12.25C21.875 16.1678 22.7828 18.4406 23.5047 19.6875C23.5813 19.8203 23.6218 19.9709 23.6219 20.1242C23.622 20.2776 23.5819 20.4282 23.5054 20.5612C23.429 20.6941 23.319 20.8046 23.1864 20.8816C23.0538 20.9586 22.9033 20.9995 22.75 21H5.24999C5.09684 20.9991 4.94662 20.958 4.81433 20.8808C4.68205 20.8036 4.57233 20.6931 4.49616 20.5602C4.41999 20.4274 4.38002 20.2768 4.38025 20.1237C4.38048 19.9705 4.42091 19.8201 4.49749 19.6875C5.21827 18.4406 6.12499 16.1667 6.12499 12.25Z" stroke="#1A6FD4" stroke-width="2" stroke-linecap="round" stroke-linejoin="round"/>
</g>
<defs>
<clipPath id="clip0_177_1090">
<rect width="28" height="28" fill="white"/>
</clipPath>
</defs>
</svg>
