<svg width="20" height="20" viewBox="0 0 20 20" fill="none" xmlns="http://www.w3.org/2000/svg">
<g clip-path="url(#clip0_265_5922)">
<path d="M7.5 9.375C10.9518 9.375 13.75 8.1158 13.75 6.5625C13.75 5.0092 10.9518 3.75 7.5 3.75C4.04822 3.75 1.25 5.0092 1.25 6.5625C1.25 8.1158 4.04822 9.375 7.5 9.375Z" stroke="#1A6FD4" stroke-width="1.25" stroke-linecap="round" stroke-linejoin="round"/>
<path d="M1.25 6.5625V9.6875C1.25 11.2406 4.04844 12.5 7.5 12.5C10.9516 12.5 13.75 11.2406 13.75 9.6875V6.5625" stroke="#1A6FD4" stroke-width="1.25" stroke-linecap="round" stroke-linejoin="round"/>
<path d="M5 9.14062V12.2656" stroke="#1A6FD4" stroke-width="1.25" stroke-linecap="round" stroke-linejoin="round"/>
<path d="M13.7501 7.5564C16.6032 7.81733 18.7501 8.95171 18.7501 10.3126C18.7501 11.8658 15.9517 13.1251 12.5001 13.1251C10.9688 13.1251 9.56572 12.8775 8.479 12.4658" stroke="#1A6FD4" stroke-width="1.25" stroke-linecap="round" stroke-linejoin="round"/>
<path d="M6.25 12.4437V13.4375C6.25 14.9906 9.04844 16.25 12.5 16.25C15.9516 16.25 18.75 14.9906 18.75 13.4375V10.3125" stroke="#1A6FD4" stroke-width="1.25" stroke-linecap="round" stroke-linejoin="round"/>
<path d="M15 12.8906V16.0156" stroke="#1A6FD4" stroke-width="1.25" stroke-linecap="round" stroke-linejoin="round"/>
<path d="M10 9.14062V16.0156" stroke="#1A6FD4" stroke-width="1.25" stroke-linecap="round" stroke-linejoin="round"/>
</g>
<defs>
<clipPath id="clip0_265_5922">
<rect width="20" height="20" fill="white"/>
</clipPath>
</defs>
</svg>
