<svg width="161" height="46" viewBox="0 0 161 46" fill="none" xmlns="http://www.w3.org/2000/svg">
<path d="M0.499329 31.65V1.48419H11.7046C13.8297 1.48419 15.7129 1.90095 17.3505 2.73447C18.988 3.56798 20.2658 4.71013 21.1858 6.16092C22.1058 7.61171 22.5639 9.30035 22.5639 11.2249C22.5639 13.2065 22.0311 14.9521 20.9696 16.4619C19.9061 17.9697 18.5123 19.1118 16.7902 19.8883L23.7709 31.6539H17.091L10.9281 20.9656C10.7551 20.9656 10.5762 20.9656 10.3895 20.9656C10.2027 20.9656 10.0081 20.9656 9.80756 20.9656H6.40273V31.6539H0.499329V31.65ZM6.4047 15.5753H11.7478C12.6384 15.5753 13.4345 15.3886 14.1403 15.015C14.844 14.6415 15.4043 14.1245 15.8211 13.464C16.2378 12.8035 16.4462 12.0565 16.4462 11.2229C16.4462 9.92943 15.9783 8.88164 15.0465 8.07761C14.1127 7.27358 12.9136 6.87058 11.449 6.87058H6.40667V15.5753H6.4047Z" fill="#0D1B2A"/>
<path d="M36.0102 31.65V18.9369L25.322 1.48419H32.0451L38.9413 13.0335L45.8787 1.48419H52.6019L41.9136 18.8936V31.65H36.0102Z" fill="#0D1B2A"/>
<path d="M56.1777 31.65V1.48419H65.8319C68.9065 1.48419 71.6292 2.13096 73.998 3.42251C76.3688 4.71603 78.2206 6.48921 79.5574 8.74402C80.8942 10.9988 81.5606 13.6075 81.5606 16.5661C81.5606 19.4972 80.8922 22.098 79.5574 24.3665C78.2206 26.6371 76.3688 28.4181 73.998 29.7097C71.6272 31.0032 68.9045 31.648 65.8319 31.648H56.1777V31.65ZM62.0811 26.1338H65.83C67.21 26.1338 68.4878 25.89 69.6653 25.4006C70.8429 24.913 71.869 24.2368 72.7458 23.3757C73.6225 22.5147 74.3047 21.5003 74.7922 20.3385C75.2797 19.1747 75.5255 17.9186 75.5255 16.5681C75.5255 15.2175 75.2817 13.9614 74.7922 12.7976C74.3027 11.6338 73.6206 10.6214 72.7458 9.7584C71.869 8.89736 70.8429 8.22111 69.6653 7.73359C68.4878 7.24606 67.208 7.00033 65.83 7.00033H62.0811V26.1338Z" fill="#0D1B2A"/>
<path d="M86.3434 31.65V1.48419H105.434V6.87058H92.2469V13.7235H103.623V18.9801H92.2469V26.2636H105.607V31.65H86.3434Z" fill="#0D1B2A"/>
<path d="M123.858 7.32864C122.881 7.32864 122.031 6.95709 121.308 6.21401C120.584 5.47092 120.225 4.61185 120.225 3.63286C120.225 2.61259 120.584 1.75352 121.308 1.05172C122.029 0.35188 122.879 0 123.858 0C124.878 0 125.737 0.349914 126.439 1.05172C127.14 1.75352 127.49 2.61259 127.49 3.63286C127.49 4.60988 127.14 5.47092 126.439 6.21401C125.737 6.95709 124.878 7.32864 123.858 7.32864Z" fill="#00C896"/>
<path d="M158.873 8.48845C157.609 6.14518 155.855 4.30712 153.614 2.97232C151.373 1.63555 148.773 0.967163 145.814 0.967163C143.632 0.967163 141.627 1.34853 139.802 2.10931C137.978 2.87206 136.405 3.94934 135.084 5.34312C133.761 6.73689 132.737 8.38033 132.004 10.2774C131.271 12.1724 130.905 14.27 130.905 16.568C130.905 19.6131 131.544 22.3161 132.822 24.6712C134.1 27.0283 135.875 28.8663 138.143 30.1874C140.414 31.5104 143.013 32.1689 145.944 32.1689C147.554 32.1689 149.069 31.9527 150.493 31.5222C151.44 31.2351 152.329 30.8656 153.156 30.4095C153.064 30.2444 152.97 30.0812 152.869 29.922C152.213 28.8722 151.344 27.9345 150.329 27.2013C149.852 27.4509 149.352 27.6632 148.833 27.8401C147.943 28.1409 146.98 28.2923 145.946 28.2923C143.878 28.2923 142.032 27.789 140.41 26.7825C138.786 25.776 137.516 24.398 136.594 22.6464C135.676 20.8929 135.216 18.8681 135.216 16.568C135.216 14.2719 135.668 12.2452 136.575 10.4916C137.479 8.73812 138.735 7.36006 140.345 6.35552C141.953 5.34901 143.777 4.84576 145.818 4.84576C147.915 4.84576 149.761 5.34901 151.356 6.35552C152.95 7.36203 154.2 8.74008 155.106 10.4916C156.011 12.2452 156.463 14.27 156.463 16.568C156.463 18.064 156.268 19.4342 155.881 20.6845C155.739 21.1425 155.574 21.5829 155.39 22.0075C155.991 22.5697 157.206 23.7866 158.431 25.4792C158.997 24.5552 159.469 23.5389 159.848 22.4321C160.465 20.6216 160.774 18.6676 160.774 16.57C160.768 13.523 160.137 10.8298 158.873 8.48845Z" fill="#1A6FD4"/>
<path d="M125.906 10.1024H121.811V31.65H125.906V10.1024Z" fill="#1A6FD4"/>
<path d="M3.57389 43.6141C2.88191 43.6141 2.26464 43.4529 1.72404 43.1305C1.18343 42.8081 0.760774 42.3658 0.456069 41.8016C0.151365 41.2374 0 40.5886 0 39.8534C0 39.1202 0.151365 38.4695 0.456069 37.9053C0.760774 37.3411 1.1795 36.8968 1.71224 36.5764C2.24498 36.254 2.85833 36.0928 3.5503 36.0928C4.00048 36.0928 4.42903 36.1734 4.83792 36.3365C5.24681 36.4997 5.61246 36.7238 5.93289 37.0108C6.25529 37.2978 6.50298 37.632 6.67598 38.0134L5.76187 38.4282C5.63015 38.1451 5.45126 37.8994 5.22126 37.691C4.99322 37.4826 4.73373 37.3214 4.44672 37.2035C4.15971 37.0855 3.85893 37.0265 3.54833 37.0265C3.06277 37.0265 2.63029 37.1484 2.24892 37.3902C1.86754 37.632 1.5707 37.9643 1.35643 38.3869C1.14215 38.8096 1.03403 39.2971 1.03403 39.8515C1.03403 40.4058 1.14215 40.8973 1.36036 41.3258C1.57856 41.7544 1.87934 42.0886 2.26464 42.3284C2.64995 42.5682 3.08636 42.6862 3.57782 42.6862C3.89628 42.6862 4.19706 42.6213 4.4821 42.4935C4.76518 42.3658 5.02074 42.1888 5.24485 41.9647C5.46895 41.7406 5.65178 41.4811 5.78938 41.1902L6.7035 41.5951C6.5305 41.9903 6.28477 42.3402 5.96631 42.6449C5.64784 42.9496 5.2822 43.1875 4.87134 43.3565C4.46638 43.5276 4.03193 43.6141 3.57389 43.6141Z" fill="#0D1B2A"/>
<path d="M10.0867 43.6141C9.56774 43.6141 9.10969 43.4981 8.71456 43.2661C8.31943 43.0341 8.00882 42.7137 7.78472 42.3048C7.55865 41.8959 7.44659 41.4261 7.44659 40.8914C7.44659 40.3586 7.55668 39.8868 7.77882 39.478C8.00096 39.0691 8.30763 38.7486 8.70277 38.5167C9.0979 38.2847 9.54807 38.1687 10.0533 38.1687C10.5723 38.1687 11.0303 38.2847 11.4255 38.5167C11.8206 38.7486 12.1273 39.0691 12.3494 39.478C12.5715 39.8868 12.6816 40.3567 12.6816 40.8914C12.6816 41.4241 12.5715 41.8959 12.3494 42.3048C12.1273 42.7137 11.8206 43.0341 11.4294 43.2661C11.0421 43.4981 10.5919 43.6141 10.0867 43.6141ZM10.0867 42.7098C10.3973 42.7098 10.6745 42.6312 10.9124 42.4759C11.1522 42.3206 11.339 42.1063 11.4785 41.837C11.6161 41.5676 11.6869 41.2511 11.6869 40.8914C11.6869 40.5316 11.6181 40.2171 11.4785 39.9458C11.339 39.6765 11.1483 39.4622 10.9025 39.3069C10.6568 39.1516 10.3777 39.073 10.0671 39.073C9.74859 39.073 9.46748 39.1516 9.22568 39.3069C8.98388 39.4622 8.79319 39.6765 8.65362 39.9517C8.51601 40.225 8.44524 40.5395 8.44524 40.8914C8.44524 41.2511 8.51405 41.5657 8.65362 41.837C8.79123 42.1063 8.98585 42.3206 9.23551 42.4759C9.48517 42.6312 9.76825 42.7098 10.0867 42.7098Z" fill="#0D1B2A"/>
<path d="M13.7648 43.4883V38.2945H14.6887L14.73 39.0121C14.8971 38.7349 15.1035 38.5265 15.3532 38.383C15.6028 38.2414 15.8898 38.1707 16.2162 38.1707C16.631 38.1707 16.9848 38.265 17.2758 38.4557C17.5667 38.6464 17.777 38.9354 17.9088 39.3226C18.0601 38.9491 18.2764 38.6621 18.5535 38.4655C18.8307 38.269 19.159 38.1687 19.5404 38.1687C20.1282 38.1687 20.5902 38.3614 20.9224 38.7447C21.2546 39.13 21.4178 39.7197 21.4099 40.5159V43.4863H20.4329V40.8265C20.4329 40.3547 20.3818 39.9969 20.2815 39.7512C20.1813 39.5055 20.0476 39.3344 19.8825 39.2361C19.7154 39.1398 19.5227 39.0867 19.3006 39.0809C18.9133 39.0809 18.6125 39.2303 18.4022 39.5271C18.1918 39.8259 18.0857 40.2446 18.0857 40.7833V43.4843H17.0988V40.8245C17.0988 40.3527 17.0497 39.995 16.9534 39.7492C16.857 39.5035 16.7234 39.3325 16.5543 39.2342C16.3852 39.1379 16.1886 39.0848 15.9665 39.0789C15.5792 39.0789 15.2785 39.2283 15.0681 39.5251C14.8578 39.8239 14.7516 40.2427 14.7516 40.7813V43.4824H13.7648V43.4883Z" fill="#0D1B2A"/>
<path d="M22.7192 45.5661V38.2945H23.6431L23.6942 39.1359C23.881 38.8312 24.1208 38.5933 24.4118 38.4242C24.7027 38.2552 25.0349 38.1707 25.4084 38.1707C25.8724 38.1707 26.2813 38.2847 26.6351 38.5127C26.989 38.7407 27.2642 39.0572 27.4608 39.4642C27.6574 39.8691 27.7576 40.3449 27.7576 40.8933C27.7576 41.4339 27.6593 41.9077 27.4608 42.3166C27.2642 42.7255 26.989 43.044 26.6351 43.272C26.2813 43.5 25.8724 43.6141 25.4084 43.6141C25.0349 43.6141 24.7027 43.5295 24.4157 43.3605C24.1287 43.1914 23.8908 42.9575 23.7041 42.6587V45.5681H22.7192V45.5661ZM25.1706 42.7196C25.4812 42.7196 25.7564 42.641 25.9903 42.4857C26.2262 42.3304 26.411 42.1141 26.5467 41.8369C26.6823 41.5598 26.7491 41.2452 26.7491 40.8914C26.7491 40.5316 26.6823 40.2151 26.5526 39.9399C26.4208 39.6667 26.2361 39.4524 25.9962 39.2951C25.7564 39.1398 25.4851 39.0612 25.1804 39.0612C24.8954 39.0612 24.6418 39.1398 24.4177 39.2951C24.1916 39.4504 24.0186 39.6667 23.8928 39.9438C23.7689 40.221 23.706 40.5356 23.706 40.8894C23.706 41.2492 23.7689 41.5657 23.8928 41.8389C24.0166 42.1122 24.1896 42.3264 24.4118 42.4837C24.6339 42.6429 24.8855 42.7196 25.1706 42.7196Z" fill="#0D1B2A"/>
<path d="M30.4999 43.6141C29.8827 43.6141 29.405 43.4745 29.0609 43.1934C28.7189 42.9122 28.5459 42.523 28.5459 42.0257C28.5459 41.4929 28.7248 41.086 29.0806 40.8049C29.4364 40.5238 29.9338 40.3842 30.5707 40.3842H31.9625C31.9212 39.9419 31.8053 39.6077 31.6146 39.3816C31.4239 39.1575 31.1388 39.0435 30.7575 39.0435C30.4881 39.0435 30.2542 39.0985 30.0557 39.2106C29.8591 39.3207 29.6939 39.4956 29.5622 39.7296L28.6894 39.3973C28.8133 39.1614 28.9705 38.9531 29.1573 38.7683C29.344 38.5854 29.5701 38.44 29.8316 38.3319C30.095 38.2237 30.4036 38.1707 30.7555 38.1707C31.247 38.1707 31.6559 38.267 31.9822 38.4616C32.3085 38.6562 32.5523 38.9354 32.7154 39.303C32.8786 39.6706 32.9553 40.1227 32.9494 40.6633L32.9395 43.4882H32.0254L31.994 42.8238C31.8406 43.0734 31.6401 43.2661 31.3905 43.4057C31.1428 43.5433 30.8459 43.6141 30.4999 43.6141ZM30.5825 42.7727C30.8656 42.7727 31.1113 42.7117 31.3197 42.5918C31.5281 42.4699 31.6893 42.3009 31.8072 42.0827C31.9252 41.8645 31.9841 41.6128 31.9841 41.3298V41.1627H30.842C30.3643 41.1627 30.0281 41.2374 29.8335 41.3868C29.6389 41.5362 29.5426 41.7426 29.5426 42.004C29.5426 42.2458 29.635 42.4346 29.8178 42.5702C30.0026 42.7039 30.2562 42.7727 30.5825 42.7727Z" fill="#0D1B2A"/>
<path d="M34.1977 43.4882V38.2945H35.1845V39.2302C35.3929 38.9039 35.6603 38.6641 35.9905 38.5088C36.3188 38.3535 36.6648 38.2748 37.0246 38.2748V39.2106C36.714 39.2106 36.4171 39.2578 36.136 39.3501C35.8549 39.4445 35.6269 39.5959 35.4499 39.8082C35.273 40.0185 35.1845 40.3055 35.1845 40.6653V43.4902H34.1977V43.4882Z" fill="#0D1B2A"/>
<path d="M40.1188 43.6141C39.6136 43.6141 39.1673 43.4981 38.7781 43.2661C38.3908 43.0341 38.0861 42.7137 37.864 42.3048C37.6418 41.8959 37.5317 41.4261 37.5317 40.8914C37.5317 40.3586 37.6418 39.8868 37.864 39.478C38.0861 39.0691 38.3928 38.7486 38.784 38.5167C39.1752 38.2847 39.6234 38.1687 40.1286 38.1687C40.6063 38.1687 41.025 38.2886 41.3848 38.5265C41.7445 38.7663 42.0276 39.1044 42.2321 39.5448C42.4365 39.9851 42.5387 40.5022 42.5387 41.0978H38.5402C38.5756 41.6109 38.7466 42.0099 39.0553 42.297C39.3639 42.584 39.7433 42.7275 40.1935 42.7275C40.5395 42.7275 40.8284 42.6469 41.0604 42.4837C41.2924 42.3205 41.4732 42.1141 41.605 41.8664L42.4562 42.2616C42.3166 42.5309 42.1377 42.7688 41.9156 42.9732C41.6934 43.1777 41.432 43.3349 41.1312 43.445C40.8304 43.5571 40.4923 43.6141 40.1188 43.6141ZM38.6012 40.3213H41.4791C41.4575 40.0441 41.3848 39.8102 41.255 39.6195C41.1273 39.4288 40.9641 39.2814 40.7675 39.1772C40.5709 39.073 40.3507 39.0219 40.107 39.0219C39.8711 39.0219 39.643 39.073 39.4209 39.1733C39.1988 39.2735 39.014 39.4209 38.8646 39.6156C38.7171 39.8082 38.6287 40.0441 38.6012 40.3213Z" fill="#0D1B2A"/>
<path d="M46.0497 43.4882V38.2945H47.0366V39.2302C47.2449 38.9039 47.5123 38.6641 47.8426 38.5088C48.1708 38.3535 48.5168 38.2748 48.8766 38.2748V39.2106C48.566 39.2106 48.2691 39.2578 47.988 39.3501C47.7069 39.4445 47.4789 39.5959 47.3019 39.8082C47.125 40.0185 47.0366 40.3055 47.0366 40.6653V43.4902H46.0497V43.4882Z" fill="#0D1B2A"/>
<path d="M50.235 37.1936C50.0757 37.1936 49.9362 37.1327 49.8202 37.0128C49.7022 36.8909 49.6432 36.7513 49.6432 36.5921C49.6432 36.425 49.7022 36.2854 49.8202 36.1714C49.9381 36.0574 50.0757 36.0004 50.235 36.0004C50.4021 36.0004 50.5416 36.0574 50.6557 36.1714C50.7697 36.2854 50.8267 36.425 50.8267 36.5921C50.8267 36.7513 50.7697 36.8909 50.6557 37.0128C50.5416 37.1327 50.4021 37.1936 50.235 37.1936ZM49.7376 43.4882V38.2945H50.7245V43.4882H49.7376Z" fill="#0D1B2A"/>
<path d="M54.2237 43.6141C53.7519 43.6141 53.343 43.5 52.9931 43.272C52.6431 43.044 52.3699 42.7255 52.1733 42.3166C51.9767 41.9077 51.8765 41.434 51.8765 40.8933C51.8765 40.3468 51.9747 39.8711 52.1733 39.4642C52.3699 39.0592 52.6451 38.7427 52.9931 38.5127C53.343 38.2847 53.7538 38.1707 54.2237 38.1707C54.5913 38.1707 54.9196 38.2532 55.2105 38.4203C55.5015 38.5874 55.7393 38.8213 55.9281 39.126V36.2166H56.9051V43.4882H55.9693L55.9379 42.6469C55.7511 42.9516 55.5113 43.1894 55.2203 43.3585C54.9314 43.5276 54.5991 43.6141 54.2237 43.6141ZM54.4537 42.7196C54.7368 42.7196 54.9884 42.6429 55.2066 42.4916C55.4248 42.3402 55.5978 42.1299 55.7256 41.8625C55.8533 41.5951 55.9202 41.2904 55.9281 40.9425V40.8383C55.9202 40.4923 55.8533 40.1856 55.7256 39.9183C55.5978 39.6509 55.4248 39.4426 55.2066 39.2892C54.9884 39.1378 54.7348 39.0612 54.4438 39.0612C54.1391 39.0612 53.8698 39.1398 53.6339 39.2951C53.398 39.4504 53.2152 39.6647 53.0835 39.9399C52.9518 40.2132 52.8869 40.5297 52.8869 40.8914C52.8869 41.2511 52.9537 41.5676 53.0894 41.8409C53.225 42.1141 53.4098 42.3284 53.6457 42.4857C53.8777 42.6429 54.149 42.7196 54.4537 42.7196Z" fill="#0D1B2A"/>
<path d="M60.5713 43.6141C60.0661 43.6141 59.6199 43.4981 59.2306 43.2661C58.8434 43.0341 58.5386 42.7137 58.3165 42.3048C58.0944 41.8959 57.9843 41.4261 57.9843 40.8914C57.9843 40.3586 58.0944 39.8868 58.3165 39.478C58.5386 39.0691 58.8453 38.7486 59.2365 38.5167C59.6277 38.2847 60.0759 38.1687 60.5812 38.1687C61.0589 38.1687 61.4776 38.2886 61.8373 38.5265C62.1971 38.7663 62.4802 39.1044 62.6846 39.5448C62.8891 39.9851 62.9913 40.5022 62.9913 41.0978H58.9928C59.0281 41.6109 59.1992 42.0099 59.5078 42.297C59.8164 42.584 60.1959 42.7275 60.646 42.7275C60.992 42.7275 61.281 42.6469 61.513 42.4837C61.7449 42.3205 61.9258 42.1141 62.0575 41.8664L62.9087 42.2616C62.7691 42.5309 62.5902 42.7688 62.3681 42.9732C62.146 43.1777 61.8845 43.3349 61.5837 43.445C61.283 43.5571 60.9448 43.6141 60.5713 43.6141ZM59.0537 40.3213H61.9317C61.9101 40.0441 61.8373 39.8102 61.7076 39.6195C61.5798 39.4288 61.4166 39.2814 61.2201 39.1772C61.0235 39.073 60.8033 39.0219 60.5595 39.0219C60.3236 39.0219 60.0956 39.073 59.8735 39.1733C59.6513 39.2735 59.4665 39.4209 59.3171 39.6156C59.1697 39.8082 59.0812 40.0441 59.0537 40.3213Z" fill="#0D1B2A"/>
<path d="M65.828 43.614C65.4604 43.614 65.1341 43.559 64.847 43.4469C64.56 43.3368 64.3163 43.1874 64.1197 43.0007C63.9231 42.8139 63.7757 42.6016 63.6774 42.3677L64.5286 41.9942C64.6387 42.2085 64.8058 42.3854 65.0279 42.523C65.25 42.6626 65.4958 42.7314 65.7651 42.7314C66.0619 42.7314 66.3077 42.6763 66.5023 42.5643C66.6969 42.4542 66.7932 42.2969 66.7932 42.0964C66.7932 41.9018 66.7205 41.7504 66.575 41.6403C66.4295 41.5302 66.2192 41.4398 65.942 41.371L65.4545 41.2472C64.9689 41.1155 64.5934 40.9189 64.3281 40.6554C64.0607 40.392 63.929 40.0952 63.929 39.763C63.929 39.2577 64.0922 38.8665 64.4165 38.5893C64.7429 38.3122 65.2225 38.1746 65.8594 38.1746C66.172 38.1746 66.4571 38.2198 66.7166 38.3102C66.976 38.4006 67.1982 38.5284 67.381 38.6955C67.5638 38.8626 67.6936 39.0592 67.7702 39.2872L66.9387 39.6607C66.8561 39.4524 66.7146 39.299 66.5121 39.1988C66.3116 39.0985 66.0757 39.0474 65.8064 39.0474C65.5292 39.0474 65.311 39.1083 65.1517 39.2282C64.9925 39.3501 64.9119 39.5172 64.9119 39.7315C64.9119 39.8494 64.9788 39.9615 65.1144 40.0696C65.25 40.1778 65.4486 40.2662 65.712 40.335L66.2723 40.4707C66.6124 40.5532 66.8915 40.681 67.1136 40.8501C67.3358 41.0191 67.5009 41.2098 67.613 41.4221C67.7231 41.6325 67.7801 41.8526 67.7801 42.0826C67.7801 42.3952 67.6955 42.6665 67.5265 42.8985C67.3574 43.1304 67.1254 43.3093 66.8306 43.4332C66.5357 43.5511 66.2015 43.614 65.828 43.614Z" fill="#0D1B2A"/>
<path d="M69.2544 43.6337C69.0814 43.6337 68.9301 43.5708 68.8023 43.4469C68.6745 43.3231 68.6096 43.1698 68.6096 42.9909C68.6096 42.81 68.6745 42.6586 68.8023 42.5328C68.9301 42.409 69.0814 42.3461 69.2544 42.3461C69.4353 42.3461 69.5886 42.409 69.7164 42.5328C69.8442 42.6567 69.9091 42.81 69.9091 42.9909C69.9091 43.1717 69.8442 43.3231 69.7164 43.4469C69.5886 43.5708 69.4353 43.6337 69.2544 43.6337Z" fill="#0D1B2A"/>
<path d="M73.8565 43.4882V36.2166H74.9377L77.3478 39.7787L79.7481 36.2166H80.8293V43.4882H79.811V37.8581L77.338 41.5047L74.8767 37.8699V43.4902H73.8565V43.4882Z" fill="#0D1B2A"/>
<path d="M84.0985 43.6141C83.4812 43.6141 83.0035 43.4745 82.6595 43.1934C82.3174 42.9122 82.1444 42.523 82.1444 42.0257C82.1444 41.4929 82.3233 41.086 82.6791 40.8049C83.0349 40.5238 83.5323 40.3842 84.1692 40.3842H85.561C85.5198 39.9419 85.4038 39.6077 85.2131 39.3816C85.0224 39.1575 84.7373 39.0435 84.356 39.0435C84.0867 39.0435 83.8527 39.0985 83.6542 39.2106C83.4576 39.3207 83.2925 39.4956 83.1607 39.7296L82.2879 39.3973C82.4118 39.1614 82.569 38.9531 82.7558 38.7683C82.9425 38.5854 83.1686 38.44 83.4301 38.3319C83.6935 38.2237 84.0021 38.1707 84.354 38.1707C84.8455 38.1707 85.2544 38.267 85.5807 38.4616C85.907 38.6562 86.1508 38.9354 86.314 39.303C86.4771 39.6706 86.5538 40.1227 86.5479 40.6633L86.538 43.4882H85.6239L85.5925 42.8238C85.4391 43.0734 85.2386 43.2661 84.9909 43.4057C84.7432 43.5433 84.4444 43.6141 84.0985 43.6141ZM84.183 42.7727C84.4661 42.7727 84.7118 42.7117 84.9202 42.5918C85.1285 42.4699 85.2897 42.3009 85.4077 42.0827C85.5256 41.8645 85.5846 41.6128 85.5846 41.3298V41.1627H84.4425C83.9648 41.1627 83.6286 41.2374 83.434 41.3868C83.2394 41.5362 83.1431 41.7426 83.1431 42.004C83.1431 42.2458 83.2354 42.4346 83.4183 42.5702C83.6011 42.7039 83.8567 42.7727 84.183 42.7727Z" fill="#0D1B2A"/>
<path d="M87.2143 43.4882L89.1369 40.797L87.35 38.2945H88.5138L89.6775 40.0087L90.8315 38.2945H91.9952L90.2299 40.8088L92.1211 43.4882H90.9475L89.6795 41.5971L88.4017 43.4882H87.2143Z" fill="#0D1B2A"/>
<path d="M93.4676 37.1936C93.3084 37.1936 93.1688 37.1327 93.0528 37.0128C92.9349 36.8909 92.8759 36.7513 92.8759 36.5921C92.8759 36.425 92.9349 36.2854 93.0528 36.1714C93.1708 36.0574 93.3084 36.0004 93.4676 36.0004C93.6347 36.0004 93.7743 36.0574 93.8883 36.1714C94.0023 36.2854 94.0593 36.425 94.0593 36.5921C94.0593 36.7513 94.0023 36.8909 93.8883 37.0128C93.7743 37.1327 93.6347 37.1936 93.4676 37.1936ZM92.9703 43.4882V38.2945H93.9571V43.4882H92.9703Z" fill="#0D1B2A"/>
<path d="M95.4001 43.4883V38.2945H96.324L96.3653 39.0121C96.5324 38.7349 96.7388 38.5265 96.9885 38.383C97.2381 38.2414 97.5251 38.1707 97.8515 38.1707C98.2663 38.1707 98.6201 38.265 98.911 38.4557C99.202 38.6464 99.4123 38.9354 99.544 39.3226C99.6954 38.9491 99.9116 38.6621 100.189 38.4655C100.466 38.269 100.794 38.1687 101.176 38.1687C101.763 38.1687 102.225 38.3614 102.558 38.7447C102.89 39.13 103.053 39.7197 103.045 40.5159V43.4863H102.068V40.8265C102.068 40.3547 102.017 39.9969 101.917 39.7512C101.817 39.5055 101.683 39.3344 101.518 39.2361C101.351 39.1398 101.158 39.0867 100.936 39.0809C100.549 39.0809 100.248 39.2303 100.037 39.5271C99.8271 39.8259 99.721 40.2446 99.721 40.7833V43.4843H98.7341V40.8245C98.7341 40.3527 98.685 39.995 98.5886 39.7492C98.4923 39.5035 98.3586 39.3325 98.1896 39.2342C98.0205 39.1379 97.8239 39.0848 97.6018 39.0789C97.2145 39.0789 96.9137 39.2283 96.7034 39.5251C96.4931 39.8239 96.3869 40.2427 96.3869 40.7813V43.4824H95.4001V43.4883Z" fill="#0D1B2A"/>
<path d="M104.864 37.1936C104.704 37.1936 104.565 37.1327 104.449 37.0128C104.331 36.8909 104.272 36.7513 104.272 36.5921C104.272 36.425 104.331 36.2854 104.449 36.1714C104.567 36.0574 104.704 36.0004 104.864 36.0004C105.031 36.0004 105.17 36.0574 105.284 36.1714C105.398 36.2854 105.455 36.425 105.455 36.5921C105.455 36.7513 105.398 36.8909 105.284 37.0128C105.17 37.1327 105.031 37.1936 104.864 37.1936ZM104.366 43.4882V38.2945H105.353V43.4882H104.366Z" fill="#0D1B2A"/>
<path d="M106.537 43.4882V42.7294L109.466 39.1359H106.537V38.2945H110.722V39.0317L107.783 42.6469H110.743V43.4882H106.537Z" fill="#0D1B2A"/>
<path d="M114.16 43.6141C113.655 43.6141 113.209 43.4981 112.819 43.2661C112.432 43.0341 112.127 42.7137 111.905 42.3048C111.683 41.8959 111.573 41.4261 111.573 40.8914C111.573 40.3586 111.683 39.8868 111.905 39.478C112.127 39.0691 112.434 38.7486 112.825 38.5167C113.216 38.2847 113.665 38.1687 114.17 38.1687C114.648 38.1687 115.066 38.2886 115.426 38.5265C115.786 38.7663 116.069 39.1044 116.273 39.5448C116.478 39.9851 116.58 40.5022 116.58 41.0978H112.581C112.617 41.6109 112.788 42.0099 113.097 42.297C113.405 42.584 113.785 42.7275 114.235 42.7275C114.581 42.7275 114.87 42.6469 115.102 42.4837C115.334 42.3205 115.514 42.1141 115.646 41.8664L116.497 42.2616C116.358 42.5309 116.179 42.7688 115.957 42.9732C115.735 43.1777 115.473 43.3349 115.172 43.445C114.872 43.5571 114.536 43.6141 114.16 43.6141ZM112.644 40.3213H115.522C115.501 40.0441 115.428 39.8102 115.298 39.6195C115.17 39.4288 115.007 39.2814 114.811 39.1772C114.614 39.073 114.394 39.0219 114.15 39.0219C113.914 39.0219 113.686 39.073 113.464 39.1733C113.242 39.2735 113.057 39.4209 112.908 39.6156C112.76 39.8082 112.672 40.0441 112.644 40.3213Z" fill="#0D1B2A"/>
<path d="M122.387 43.6141C121.882 43.6141 121.436 43.4981 121.046 43.2661C120.659 43.0341 120.354 42.7137 120.132 42.3048C119.91 41.8959 119.8 41.4261 119.8 40.8914C119.8 40.3586 119.91 39.8868 120.132 39.478C120.354 39.0691 120.661 38.7486 121.052 38.5167C121.443 38.2847 121.892 38.1687 122.397 38.1687C122.875 38.1687 123.293 38.2886 123.653 38.5265C124.013 38.7663 124.296 39.1044 124.5 39.5448C124.705 39.9851 124.807 40.5022 124.807 41.0978H120.808C120.844 41.6109 121.015 42.0099 121.324 42.297C121.632 42.584 122.012 42.7275 122.462 42.7275C122.808 42.7275 123.097 42.6469 123.329 42.4837C123.561 42.3205 123.742 42.1141 123.873 41.8664L124.724 42.2616C124.585 42.5309 124.406 42.7688 124.184 42.9732C123.962 43.1777 123.7 43.3349 123.399 43.445C123.099 43.5571 122.761 43.6141 122.387 43.6141ZM120.871 40.3213H123.749C123.728 40.0441 123.655 39.8102 123.525 39.6195C123.398 39.4288 123.234 39.2814 123.038 39.1772C122.841 39.073 122.621 39.0219 122.377 39.0219C122.141 39.0219 121.913 39.073 121.691 39.1733C121.469 39.2735 121.284 39.4209 121.135 39.6156C120.987 39.8082 120.899 40.0441 120.871 40.3213Z" fill="#0D1B2A"/>
<path d="M127.447 43.6141C126.83 43.6141 126.352 43.4745 126.008 43.1934C125.666 42.9122 125.493 42.523 125.493 42.0257C125.493 41.4929 125.672 41.086 126.028 40.8049C126.384 40.5238 126.881 40.3842 127.518 40.3842H128.91C128.868 39.9419 128.752 39.6077 128.562 39.3816C128.371 39.1575 128.086 39.0435 127.705 39.0435C127.435 39.0435 127.201 39.0985 127.003 39.2106C126.806 39.3207 126.641 39.4956 126.509 39.7296L125.637 39.3973C125.76 39.1614 125.918 38.9531 126.104 38.7683C126.291 38.5854 126.517 38.44 126.779 38.3319C127.042 38.2237 127.351 38.1707 127.703 38.1707C128.194 38.1707 128.603 38.267 128.929 38.4616C129.256 38.6562 129.499 38.9354 129.663 39.303C129.826 39.6706 129.902 40.1227 129.897 40.6633L129.887 43.4882H128.973L128.941 42.8238C128.788 43.0734 128.587 43.2661 128.34 43.4057C128.09 43.5433 127.793 43.6141 127.447 43.6141ZM127.53 42.7727C127.813 42.7727 128.058 42.7117 128.267 42.5918C128.475 42.4699 128.636 42.3009 128.754 42.0827C128.872 41.8645 128.931 41.6128 128.931 41.3298V41.1627H127.789C127.311 41.1627 126.975 41.2374 126.781 41.3868C126.586 41.5362 126.49 41.7426 126.49 42.004C126.49 42.2458 126.582 42.4346 126.765 42.5702C126.95 42.7039 127.203 42.7727 127.53 42.7727Z" fill="#0D1B2A"/>
<path d="M131.145 43.4882V38.2945H132.132V39.2302C132.34 38.9039 132.607 38.6641 132.938 38.5088C133.266 38.3535 133.612 38.2748 133.972 38.2748V39.2106C133.661 39.2106 133.364 39.2578 133.083 39.3501C132.802 39.4445 132.574 39.5959 132.397 39.8082C132.22 40.0185 132.132 40.3055 132.132 40.6653V43.4902H131.145V43.4882Z" fill="#0D1B2A"/>
<path d="M134.77 43.4882V38.2945H135.694L135.735 39.0533C135.908 38.7702 136.132 38.552 136.405 38.3987C136.679 38.2473 136.993 38.1707 137.345 38.1707C137.754 38.1707 138.108 38.2532 138.411 38.4203C138.711 38.5874 138.943 38.8449 139.107 39.1949C139.27 39.5448 139.35 40.0028 139.35 40.5709V43.4902H138.363V40.8304C138.363 40.3586 138.31 40.0008 138.202 39.7551C138.094 39.5094 137.947 39.3384 137.756 39.2401C137.565 39.1437 137.345 39.0907 137.095 39.0848C136.673 39.0848 136.345 39.2342 136.109 39.531C135.873 39.8298 135.755 40.2485 135.755 40.7872V43.4882H134.77Z" fill="#0D1B2A"/>
<path d="M141.159 37.1936C141 37.1936 140.86 37.1327 140.744 37.0128C140.626 36.8909 140.567 36.7513 140.567 36.5921C140.567 36.425 140.626 36.2854 140.744 36.1714C140.862 36.0574 141 36.0004 141.159 36.0004C141.326 36.0004 141.466 36.0574 141.58 36.1714C141.694 36.2854 141.751 36.425 141.751 36.5921C141.751 36.7513 141.694 36.8909 141.58 37.0128C141.464 37.1327 141.324 37.1936 141.159 37.1936ZM140.659 43.4882V38.2945H141.646V43.4882H140.659Z" fill="#0D1B2A"/>
<path d="M143.089 43.4882V38.2945H144.013L144.055 39.0533C144.228 38.7702 144.452 38.552 144.725 38.3987C144.998 38.2473 145.313 38.1707 145.665 38.1707C146.073 38.1707 146.427 38.2532 146.73 38.4203C147.031 38.5874 147.263 38.8449 147.426 39.1949C147.589 39.5448 147.67 40.0028 147.67 40.5709V43.4902H146.683V40.8304C146.683 40.3586 146.63 40.0008 146.522 39.7551C146.414 39.5094 146.266 39.3384 146.075 39.2401C145.885 39.1437 145.665 39.0907 145.415 39.0848C144.992 39.0848 144.664 39.2342 144.428 39.531C144.192 39.8298 144.074 40.2485 144.074 40.7872V43.4882H143.089Z" fill="#0D1B2A"/>
<path d="M151.069 45.7018C150.723 45.7018 150.408 45.6684 150.123 45.6035C149.84 45.5366 149.6 45.4639 149.405 45.3794C149.211 45.2968 149.065 45.2241 148.969 45.1612L149.343 44.3611C149.433 44.4161 149.561 44.481 149.728 44.5537C149.895 44.6265 150.088 44.6894 150.31 44.7405C150.532 44.7916 150.778 44.8191 151.047 44.8191C151.365 44.8191 151.649 44.7542 151.898 44.6265C152.148 44.4987 152.342 44.3001 152.486 44.0288C152.628 43.7595 152.698 43.4135 152.698 42.9909V42.4503C152.517 42.755 152.28 42.9929 151.981 43.1619C151.684 43.331 151.348 43.4155 150.972 43.4155C150.5 43.4155 150.092 43.3054 149.742 43.0892C149.392 42.871 149.118 42.5663 148.922 42.1751C148.725 41.7839 148.625 41.3317 148.625 40.8186C148.625 40.2859 148.723 39.822 148.922 39.4268C149.118 39.0317 149.394 38.725 149.742 38.5029C150.092 38.2807 150.502 38.1707 150.972 38.1707C151.346 38.1707 151.682 38.2552 151.981 38.4242C152.278 38.5933 152.517 38.839 152.698 39.1575V38.2945H153.685V42.9693C153.685 43.5649 153.573 44.0642 153.347 44.4712C153.123 44.8761 152.814 45.1828 152.423 45.3912C152.032 45.5976 151.58 45.7018 151.069 45.7018ZM151.224 42.5859C151.515 42.5859 151.768 42.5073 151.983 42.352C152.197 42.1967 152.368 41.9844 152.492 41.719C152.616 41.4516 152.679 41.1469 152.679 40.799C152.679 40.453 152.616 40.1483 152.492 39.8849C152.368 39.6214 152.195 39.415 151.977 39.2676C151.759 39.1182 151.505 39.0435 151.214 39.0435C150.909 39.0435 150.64 39.1182 150.408 39.2676C150.176 39.417 149.993 39.6234 149.864 39.8849C149.732 40.1483 149.667 40.453 149.667 40.799C149.667 41.145 149.734 41.4516 149.869 41.719C150.005 41.9863 150.188 42.1967 150.42 42.352C150.65 42.5073 150.919 42.5859 151.224 42.5859Z" fill="#0D1B2A"/>
<path d="M156.915 43.614C156.547 43.614 156.221 43.559 155.934 43.4469C155.647 43.3368 155.403 43.1874 155.207 43.0007C155.01 42.8139 154.863 42.6016 154.764 42.3677L155.616 41.9942C155.726 42.2085 155.893 42.3854 156.115 42.523C156.337 42.6626 156.583 42.7314 156.852 42.7314C157.149 42.7314 157.395 42.6763 157.589 42.5643C157.784 42.4542 157.88 42.2969 157.88 42.0964C157.88 41.9018 157.807 41.7504 157.662 41.6403C157.517 41.5302 157.306 41.4398 157.029 41.371L156.541 41.2472C156.056 41.1155 155.68 40.9189 155.415 40.6554C155.148 40.392 155.016 40.0952 155.016 39.763C155.016 39.2577 155.179 38.8665 155.504 38.5893C155.83 38.3122 156.31 38.1746 156.946 38.1746C157.259 38.1746 157.544 38.2198 157.804 38.3102C158.063 38.4006 158.285 38.5284 158.468 38.6955C158.651 38.8626 158.781 39.0592 158.857 39.2872L158.026 39.6607C157.943 39.4524 157.802 39.299 157.599 39.1988C157.399 39.0985 157.163 39.0474 156.893 39.0474C156.616 39.0474 156.398 39.1083 156.239 39.2282C156.08 39.3501 155.999 39.5172 155.999 39.7315C155.999 39.8494 156.066 39.9615 156.201 40.0696C156.337 40.1778 156.536 40.2662 156.799 40.335L157.359 40.4707C157.699 40.5532 157.979 40.681 158.201 40.8501C158.423 41.0191 158.588 41.2098 158.7 41.4221C158.81 41.6325 158.867 41.8526 158.867 42.0826C158.867 42.3952 158.783 42.6665 158.613 42.8985C158.444 43.1304 158.212 43.3093 157.918 43.4332C157.625 43.5511 157.29 43.614 156.915 43.614Z" fill="#0D1B2A"/>
<path d="M160.343 43.6337C160.17 43.6337 160.019 43.5708 159.891 43.4469C159.764 43.3231 159.699 43.1698 159.699 42.9909C159.699 42.81 159.764 42.6586 159.891 42.5328C160.019 42.409 160.17 42.3461 160.343 42.3461C160.524 42.3461 160.678 42.409 160.805 42.5328C160.933 42.6567 160.998 42.81 160.998 42.9909C160.998 43.1717 160.933 43.3231 160.805 43.4469C160.678 43.5708 160.524 43.6337 160.343 43.6337Z" fill="#0D1B2A"/>
<path d="M157.666 26.0237C156.49 24.398 155.331 23.2362 154.745 22.6877C154.523 22.4793 154.393 22.3692 154.391 22.3673L154.324 22.3044C151.918 19.8215 146.921 19.3261 144.855 19.2278V24.5474C146.547 24.6437 148.031 24.856 149.565 25.6384C150.017 25.8704 150.459 26.1397 150.874 26.4405C151.971 27.2327 152.934 28.2628 153.66 29.4227C153.762 29.5839 153.864 29.7588 153.972 29.9515C154.615 31.1035 155.081 32.3734 155.315 33.6237C155.421 34.1938 155.494 34.64 155.543 34.9899H161C160.963 31.3649 159.203 28.1468 157.666 26.0237Z" fill="#00C896"/>
</svg>
