<svg width="214" height="61" viewBox="0 0 214 61" fill="none" xmlns="http://www.w3.org/2000/svg">
<path d="M0.663696 42.2445V1.98102H15.5577C18.3823 1.98102 20.8855 2.53729 23.0621 3.64981C25.2387 4.76234 26.9372 6.28681 28.16 8.22324C29.3829 10.1597 29.9917 12.4136 29.9917 14.9824C29.9917 17.6272 29.2836 19.9572 27.8726 21.9724C26.459 23.9849 24.6064 25.5094 22.3174 26.5458L31.5961 42.2497H22.7172L14.5255 27.9837C14.2956 27.9837 14.0578 27.9837 13.8096 27.9837C13.5613 27.9837 13.3027 27.9837 13.0361 27.9837H8.51046V42.2497H0.663696V42.2445ZM8.51307 20.789H15.6151C16.7988 20.789 17.8571 20.5397 18.7951 20.0412C19.7306 19.5427 20.4753 18.8526 21.0292 17.971C21.5832 17.0893 21.8601 16.0923 21.8601 14.9797C21.8601 13.2532 21.2383 11.8547 19.9997 10.7815C18.7585 9.70835 17.1646 9.17045 15.218 9.17045H8.51569V20.789H8.51307Z" fill="white"/>
<path d="M47.8645 42.2445V25.2758L33.6577 1.98102H42.5941L51.7604 17.3963L60.9816 1.98102H69.918L55.7112 25.2181V42.2445H47.8645Z" fill="white"/>
<path d="M74.671 42.2445V1.98102H87.5034C91.59 1.98102 95.209 2.84428 98.3576 4.56817C101.509 6.29468 103.97 8.66142 105.747 11.671C107.524 14.6806 108.41 18.1625 108.41 22.1114C108.41 26.0236 107.521 29.495 105.747 32.523C103.97 35.5536 101.509 37.9308 98.3576 39.6547C95.2064 41.3812 91.5874 42.2419 87.5034 42.2419H74.671V42.2445ZM82.5178 34.8819H87.5007C89.335 34.8819 91.0335 34.5565 92.5987 33.9032C94.1638 33.2524 95.5278 32.3498 96.6932 31.2006C97.8586 30.0513 98.7653 28.6974 99.4133 27.1467C100.061 25.5933 100.388 23.9167 100.388 22.1141C100.388 20.3115 100.064 18.6348 99.4133 17.0815C98.7626 15.5281 97.856 14.1768 96.6932 13.0249C95.5278 11.8757 94.1638 10.9731 92.5987 10.3223C91.0335 9.67162 89.3324 9.34363 87.5007 9.34363H82.5178V34.8819Z" fill="white"/>
<path d="M114.767 42.2445V1.98102H140.142V9.17045H122.614V18.3173H137.735V25.3336H122.614V35.055H140.372V42.2445H114.767Z" fill="white"/>
<path d="M164.631 9.78183C163.332 9.78183 162.203 9.28591 161.242 8.29409C160.28 7.30226 159.802 6.15562 159.802 4.84893C159.802 3.48713 160.28 2.3405 161.242 1.40377C162.2 0.469668 163.329 0 164.631 0C165.987 0 167.129 0.467045 168.061 1.40377C168.994 2.3405 169.459 3.48713 169.459 4.84893C169.459 6.153 168.994 7.30226 168.061 8.29409C167.129 9.28591 165.987 9.78183 164.631 9.78183Z" fill="white"/>
<path d="M211.173 11.3299C209.493 8.20226 207.162 5.74893 204.183 3.96732C201.204 2.18308 197.747 1.29095 193.815 1.29095C190.914 1.29095 188.249 1.79999 185.824 2.81543C183.4 3.8335 181.309 5.27139 179.553 7.13172C177.795 8.99205 176.433 11.1856 175.459 13.7177C174.484 16.2471 173.998 19.0468 173.998 22.1141C173.998 26.1785 174.847 29.7863 176.546 32.9297C178.244 36.0758 180.604 38.5291 183.619 40.2923C186.637 42.0582 190.091 42.9372 193.987 42.9372C196.127 42.9372 198.142 42.6486 200.034 42.0739C201.293 41.6909 202.474 41.1976 203.574 40.5888C203.452 40.3684 203.326 40.1506 203.193 39.9381C202.32 38.5369 201.165 37.2854 199.817 36.3067C199.182 36.6399 198.518 36.9233 197.828 37.1594C196.645 37.5609 195.364 37.7629 193.99 37.7629C191.241 37.7629 188.787 37.0912 186.632 35.7478C184.473 34.4043 182.785 32.565 181.56 30.2271C180.34 27.8866 179.728 25.184 179.728 22.1141C179.728 19.0494 180.329 16.3442 181.534 14.0037C182.736 11.6632 184.406 9.82382 186.546 8.48302C188.683 7.13959 191.108 6.46788 193.82 6.46788C196.608 6.46788 199.062 7.13959 201.181 8.48302C203.3 9.82644 204.962 11.6658 206.166 14.0037C207.368 16.3442 207.969 19.0468 207.969 22.1141C207.969 24.1109 207.711 25.9397 207.196 27.6085C207.008 28.2198 206.788 28.8076 206.543 29.3744C207.342 30.1248 208.957 31.749 210.585 34.0081C211.337 32.7749 211.965 31.4184 212.469 29.9411C213.289 27.5245 213.7 24.9164 213.7 22.1167C213.692 18.0497 212.853 14.455 211.173 11.3299Z" fill="white"/>
<path d="M167.353 13.4841H161.91V42.2445H167.353V13.4841Z" fill="white"/>
<path d="M4.75039 58.2134C3.83062 58.2134 3.01014 57.9982 2.29158 57.5679C1.57301 57.1376 1.01122 56.5473 0.606204 55.7942C0.201193 55.0411 0 54.1753 0 53.1939C0 52.2152 0.201193 51.3467 0.606204 50.5937C1.01122 49.8406 1.56778 49.2476 2.2759 48.8199C2.98401 48.3896 3.79926 48.1744 4.71903 48.1744C5.3174 48.1744 5.88703 48.282 6.43053 48.4998C6.97403 48.7176 7.46004 49.0167 7.88596 49.3998C8.31448 49.7829 8.64372 50.2289 8.87366 50.738L7.65863 51.2916C7.48356 50.9138 7.24578 50.5858 6.94006 50.3077C6.63695 50.0295 6.29204 49.8144 5.91055 49.6569C5.52905 49.4995 5.12927 49.4208 4.71642 49.4208C4.07101 49.4208 3.49616 49.5835 2.98924 49.9062C2.48233 50.2289 2.08777 50.6724 1.80295 51.2365C1.51814 51.8007 1.37442 52.4514 1.37442 53.1913C1.37442 53.9312 1.51813 54.5872 1.80817 55.1592C2.09821 55.7312 2.498 56.1773 3.01014 56.4974C3.52229 56.8175 4.10237 56.9749 4.75561 56.9749C5.17891 56.9749 5.5787 56.8883 5.95758 56.7178C6.33385 56.5472 6.67354 56.3111 6.97141 56.012C7.26929 55.7129 7.5123 55.3665 7.69521 54.9782L8.91024 55.5187C8.6803 56.0461 8.35367 56.5131 7.93037 56.9198C7.50707 57.3265 7.02106 57.644 6.47495 57.8697C5.93668 58.098 5.35921 58.2134 4.75039 58.2134Z" fill="white"/>
<path d="M13.4072 58.2135C12.7174 58.2135 12.1085 58.0587 11.5833 57.749C11.0581 57.4394 10.6453 57.0117 10.3474 56.466C10.0469 55.9202 9.89795 55.2931 9.89795 54.5794C9.89795 53.8683 10.0443 53.2386 10.3395 52.6928C10.6348 52.1471 11.0424 51.7194 11.5676 51.4097C12.0929 51.1001 12.6912 50.9453 13.3628 50.9453C14.0526 50.9453 14.6614 51.1001 15.1866 51.4097C15.7118 51.7194 16.1194 52.1471 16.4147 52.6928C16.71 53.2386 16.8563 53.8657 16.8563 54.5794C16.8563 55.2905 16.71 55.9202 16.4147 56.466C16.1194 57.0117 15.7118 57.4394 15.1918 57.749C14.6771 58.0587 14.0787 58.2135 13.4072 58.2135ZM13.4072 57.0065C13.82 57.0065 14.1885 56.9015 14.5046 56.6942C14.8234 56.487 15.0716 56.201 15.2572 55.8415C15.4401 55.482 15.5341 55.0596 15.5341 54.5794C15.5341 54.0992 15.4427 53.6794 15.2572 53.3173C15.0716 52.9578 14.8182 52.6718 14.4916 52.4646C14.1649 52.2573 13.7939 52.1523 13.381 52.1523C12.9577 52.1523 12.5841 52.2573 12.2627 52.4646C11.9413 52.6718 11.6878 52.9578 11.5023 53.3252C11.3194 53.6899 11.2253 54.1097 11.2253 54.5794C11.2253 55.0596 11.3168 55.4794 11.5023 55.8415C11.6852 56.201 11.9439 56.487 12.2758 56.6942C12.6076 56.9015 12.9839 57.0065 13.4072 57.0065Z" fill="white"/>
<path d="M18.296 58.0455V51.1132H19.5241L19.579 52.071C19.8011 51.701 20.0755 51.4229 20.4073 51.2313C20.7391 51.0424 21.1206 50.9479 21.5544 50.9479C22.1057 50.9479 22.5761 51.0739 22.9628 51.3284C23.3495 51.5829 23.6291 51.9686 23.8042 52.4855C24.0054 51.987 24.2928 51.6039 24.6612 51.3415C25.0297 51.0791 25.466 50.9453 25.9729 50.9453C26.7542 50.9453 27.3683 51.2025 27.8099 51.7141C28.2515 52.2284 28.4683 53.0156 28.4579 54.0782V58.0429H27.1592V54.4928C27.1592 53.8631 27.0913 53.3855 26.958 53.0575C26.8248 52.7295 26.6471 52.5013 26.4276 52.3701C26.2055 52.2415 25.9494 52.1707 25.6542 52.1628C25.1394 52.1628 24.7396 52.3622 24.46 52.7584C24.1804 53.1573 24.0393 53.7161 24.0393 54.4351V58.0403H22.7276V54.4902C22.7276 53.8604 22.6623 53.3829 22.5343 53.0549C22.4062 52.7269 22.2285 52.4987 22.0038 52.3675C21.7791 52.2389 21.5178 52.168 21.2226 52.1602C20.7078 52.1602 20.308 52.3596 20.0284 52.7558C19.7488 53.1546 19.6077 53.7135 19.6077 54.4325V58.0377H18.296V58.0455Z" fill="white"/>
<path d="M30.1981 60.819V51.1132H31.4262L31.4942 52.2363C31.7424 51.8296 32.0612 51.5121 32.4479 51.2864C32.8346 51.0608 33.2762 50.9479 33.7727 50.9479C34.3893 50.9479 34.9328 51.1001 35.4032 51.4045C35.8735 51.7089 36.2393 52.1313 36.5006 52.6745C36.7619 53.215 36.8952 53.85 36.8952 54.582C36.8952 55.3036 36.7645 55.9359 36.5006 56.4817C36.2393 57.0275 35.8735 57.4525 35.4032 57.7569C34.9328 58.0613 34.3893 58.2135 33.7727 58.2135C33.2762 58.2135 32.8346 58.1006 32.4531 57.875C32.0716 57.6493 31.7555 57.3371 31.5072 56.9383V60.8216H30.1981V60.819ZM33.4565 57.0196C33.8693 57.0196 34.2352 56.9146 34.5461 56.7074C34.8597 56.5001 35.1053 56.2115 35.2856 55.8415C35.4659 55.4715 35.5547 55.0517 35.5547 54.5794C35.5547 54.0992 35.4659 53.6768 35.2934 53.3094C35.1184 52.9447 34.8727 52.6587 34.554 52.4488C34.2352 52.2415 33.8746 52.1366 33.4696 52.1366C33.0907 52.1366 32.7536 52.2415 32.4557 52.4488C32.1552 52.6561 31.9253 52.9447 31.7581 53.3147C31.5934 53.6847 31.5098 54.1045 31.5098 54.5768C31.5098 55.0569 31.5934 55.4794 31.7581 55.8441C31.9227 56.2088 32.1526 56.4948 32.4479 56.7047C32.7432 56.9173 33.0776 57.0196 33.4565 57.0196Z" fill="white"/>
<path d="M40.5403 58.2135C39.7198 58.2135 39.0849 58.0272 38.6276 57.652C38.1729 57.2767 37.943 56.7572 37.943 56.0934C37.943 55.3823 38.1808 54.8392 38.6537 54.4639C39.1267 54.0887 39.7877 53.9024 40.6344 53.9024H42.4843C42.4295 53.3121 42.2753 52.866 42.0218 52.5643C41.7684 52.2651 41.3895 52.1129 40.8826 52.1129C40.5246 52.1129 40.2137 52.1864 39.9498 52.336C39.6885 52.4829 39.469 52.7164 39.2939 53.0287L38.1337 52.5852C38.2984 52.2704 38.5074 51.9922 38.7556 51.7456C39.0039 51.5016 39.3044 51.3074 39.6519 51.1631C40.002 51.0188 40.4123 50.9479 40.88 50.9479C41.5332 50.9479 42.0767 51.0765 42.5105 51.3363C42.9442 51.596 43.2682 51.9686 43.4851 52.4593C43.702 52.95 43.8039 53.5534 43.7961 54.275L43.783 58.0455H42.568L42.5262 57.1587C42.3223 57.4919 42.0558 57.749 41.724 57.9353C41.3947 58.119 41.0002 58.2135 40.5403 58.2135ZM40.65 57.0905C41.0263 57.0905 41.3529 57.0091 41.6299 56.849C41.9069 56.6864 42.1211 56.4607 42.2779 56.1695C42.4347 55.8782 42.5131 55.5424 42.5131 55.1645V54.9415H40.9949C40.36 54.9415 39.9132 55.0412 39.6545 55.2406C39.3958 55.44 39.2678 55.7155 39.2678 56.0645C39.2678 56.3872 39.3906 56.6391 39.6336 56.8202C39.8792 56.9986 40.2163 57.0905 40.65 57.0905Z" fill="white"/>
<path d="M45.4553 58.0455V51.1132H46.767V52.3622C47.044 51.9266 47.3994 51.6065 47.8384 51.3992C48.2747 51.1919 48.7346 51.087 49.2128 51.087V52.3359C48.7999 52.3359 48.4054 52.3989 48.0317 52.5222C47.6581 52.6482 47.355 52.8502 47.1198 53.1336C46.8846 53.4144 46.767 53.7974 46.767 54.2776V58.0481H45.4553V58.0455Z" fill="white"/>
<path d="M53.3255 58.2135C52.654 58.2135 52.0608 58.0587 51.5435 57.749C51.0287 57.4394 50.6237 57.0117 50.3284 56.466C50.0332 55.9202 49.8868 55.2931 49.8868 54.5794C49.8868 53.8683 50.0332 53.2386 50.3284 52.6928C50.6237 52.1471 51.0313 51.7194 51.5513 51.4097C52.0713 51.1001 52.667 50.9453 53.3386 50.9453C53.9735 50.9453 54.5301 51.1054 55.0083 51.4229C55.4864 51.743 55.8627 52.1943 56.1345 52.782C56.4062 53.3698 56.5421 54.0599 56.5421 54.8549H51.2273C51.2743 55.5397 51.5017 56.0724 51.9119 56.4555C52.3221 56.8386 52.8264 57.0301 53.4248 57.0301C53.8847 57.0301 54.2688 56.9225 54.5771 56.7047C54.8855 56.487 55.1259 56.2114 55.3009 55.8808L56.4323 56.4082C56.2468 56.7677 56.009 57.0852 55.7138 57.3581C55.4185 57.631 55.071 57.8409 54.6712 57.9878C54.2714 58.1374 53.822 58.2135 53.3255 58.2135ZM51.3083 53.8185H55.1337C55.105 53.4485 55.0083 53.1363 54.8358 52.8817C54.666 52.6272 54.4491 52.4304 54.1878 52.2914C53.9265 52.1523 53.6338 52.0841 53.3098 52.0841C52.9963 52.0841 52.6932 52.1523 52.3979 52.2861C52.1026 52.4199 51.857 52.6167 51.6584 52.8765C51.4625 53.1336 51.3449 53.4485 51.3083 53.8185Z" fill="white"/>
<path d="M61.209 58.0455V51.1132H62.5207V52.3622C62.7977 51.9266 63.153 51.6065 63.592 51.3992C64.0284 51.1919 64.4883 51.087 64.9664 51.087V52.3359C64.5536 52.3359 64.159 52.3989 63.7854 52.5222C63.4117 52.6482 63.1086 52.8502 62.8734 53.1336C62.6383 53.4144 62.5207 53.7974 62.5207 54.2776V58.0481H61.209V58.0455Z" fill="white"/>
<path d="M66.772 49.6438C66.5603 49.6438 66.3748 49.5625 66.2206 49.4024C66.0639 49.2398 65.9855 49.0535 65.9855 48.8409C65.9855 48.6179 66.0639 48.4316 66.2206 48.2794C66.3774 48.1272 66.5603 48.0511 66.772 48.0511C66.9941 48.0511 67.1796 48.1272 67.3312 48.2794C67.4827 48.4316 67.5585 48.6179 67.5585 48.8409C67.5585 49.0535 67.4827 49.2398 67.3312 49.4024C67.1796 49.5625 66.9941 49.6438 66.772 49.6438ZM66.1109 58.0455V51.1132H67.4226V58.0455H66.1109Z" fill="white"/>
<path d="M72.0736 58.2135C71.4465 58.2135 70.903 58.0613 70.4379 57.7569C69.9728 57.4525 69.6096 57.0275 69.3483 56.4817C69.087 55.9359 68.9537 55.3036 68.9537 54.582C68.9537 53.8526 69.0844 53.2176 69.3483 52.6744C69.6096 52.1339 69.9754 51.7115 70.4379 51.4045C70.903 51.1001 71.4491 50.9479 72.0736 50.9479C72.5623 50.9479 72.9986 51.0581 73.3853 51.2812C73.7721 51.5042 74.0882 51.8164 74.3391 52.2231V48.3398H75.6377V58.0455H74.3939L74.3521 56.9225C74.1039 57.3292 73.7851 57.6467 73.3984 57.8724C73.0143 58.098 72.5727 58.2135 72.0736 58.2135ZM72.3793 57.0196C72.7556 57.0196 73.0901 56.9172 73.3801 56.7152C73.6702 56.5132 73.9001 56.2324 74.0699 55.8756C74.2398 55.5187 74.3286 55.112 74.3391 54.6476V54.5085C74.3286 54.0467 74.2398 53.6374 74.0699 53.2806C73.9001 52.9237 73.6702 52.6456 73.3801 52.4409C73.0901 52.2389 72.753 52.1365 72.3663 52.1365C71.9613 52.1365 71.6033 52.2415 71.2897 52.4488C70.9762 52.6561 70.7332 52.9421 70.5581 53.3094C70.383 53.6741 70.2968 54.0966 70.2968 54.5794C70.2968 55.0596 70.3856 55.482 70.5659 55.8467C70.7462 56.2114 70.9919 56.4974 71.3054 56.7073C71.6137 56.9173 71.9743 57.0196 72.3793 57.0196Z" fill="white"/>
<path d="M80.5109 58.2135C79.8394 58.2135 79.2463 58.0587 78.7289 57.749C78.2141 57.4394 77.8091 57.0117 77.5139 56.466C77.2186 55.9202 77.0723 55.2931 77.0723 54.5794C77.0723 53.8683 77.2186 53.2386 77.5139 52.6928C77.8091 52.1471 78.2168 51.7194 78.7367 51.4097C79.2567 51.1001 79.8525 50.9453 80.524 50.9453C81.159 50.9453 81.7155 51.1054 82.1937 51.4229C82.6719 51.743 83.0481 52.1943 83.3199 52.782C83.5916 53.3698 83.7275 54.0599 83.7275 54.8549H78.4127C78.4598 55.5397 78.6871 56.0724 79.0973 56.4555C79.5076 56.8386 80.0119 57.0301 80.6102 57.0301C81.0701 57.0301 81.4542 56.9225 81.7626 56.7047C82.0709 56.487 82.3113 56.2114 82.4864 55.8808L83.6178 56.4082C83.4323 56.7677 83.1945 57.0852 82.8992 57.3581C82.6039 57.631 82.2564 57.8409 81.8566 57.9878C81.4568 58.1374 81.0074 58.2135 80.5109 58.2135ZM78.4937 53.8185H82.3191C82.2904 53.4485 82.1937 53.1363 82.0212 52.8817C81.8514 52.6272 81.6345 52.4304 81.3732 52.2914C81.1119 52.1523 80.8193 52.0841 80.4953 52.0841C80.1817 52.0841 79.8786 52.1523 79.5833 52.2861C79.2881 52.4199 79.0425 52.6167 78.8439 52.8765C78.6479 53.1336 78.5303 53.4485 78.4937 53.8185Z" fill="white"/>
<path d="M87.498 58.2135C87.0094 58.2135 86.5756 58.14 86.1941 57.9904C85.8126 57.8435 85.4886 57.6441 85.2273 57.3948C84.966 57.1455 84.7701 56.8622 84.6394 56.5499L85.7708 56.0514C85.9172 56.3374 86.1393 56.5735 86.4345 56.7572C86.7298 56.9435 87.0564 57.0353 87.4144 57.0353C87.8089 57.0353 88.1356 56.9619 88.3942 56.8123C88.6529 56.6654 88.781 56.4555 88.781 56.1878C88.781 55.9281 88.6843 55.726 88.4909 55.5791C88.2976 55.4322 88.018 55.3115 87.6496 55.2196L87.0015 55.0543C86.3561 54.8785 85.857 54.6161 85.5043 54.2645C85.1489 53.9129 84.9739 53.5167 84.9739 53.0733C84.9739 52.3989 85.1907 51.8768 85.6219 51.5068C86.0556 51.1369 86.6932 50.9532 87.5398 50.9532C87.9553 50.9532 88.3342 51.0135 88.6791 51.1342C89.024 51.2549 89.3192 51.4255 89.5623 51.6485C89.8053 51.8715 89.9777 52.1339 90.0796 52.4383L88.9743 52.9368C88.8646 52.6587 88.6764 52.454 88.4073 52.3202C88.1408 52.1864 87.8272 52.1182 87.4693 52.1182C87.1008 52.1182 86.8108 52.1995 86.5991 52.3596C86.3875 52.5223 86.2804 52.7453 86.2804 53.0313C86.2804 53.1887 86.3692 53.3383 86.5495 53.4826C86.7298 53.6269 86.9937 53.745 87.3438 53.8368L88.0885 54.0179C88.5406 54.1281 88.9116 54.2986 89.2069 54.5243C89.5021 54.7499 89.7216 55.0044 89.8706 55.2878C90.0169 55.5686 90.0927 55.8625 90.0927 56.1695C90.0927 56.5867 89.9803 56.9487 89.7556 57.2584C89.5309 57.568 89.2226 57.8068 88.8306 57.9721C88.4387 58.1295 87.9945 58.2135 87.498 58.2135Z" fill="white"/>
<path d="M92.0525 58.2397C91.8225 58.2397 91.6213 58.1557 91.4515 57.9904C91.2817 57.8251 91.1954 57.6205 91.1954 57.3817C91.1954 57.1403 91.2817 56.9383 91.4515 56.7703C91.6213 56.605 91.8225 56.5211 92.0525 56.5211C92.2929 56.5211 92.4967 56.605 92.6665 56.7703C92.8364 56.9356 92.9226 57.1403 92.9226 57.3817C92.9226 57.6231 92.8364 57.8251 92.6665 57.9904C92.4967 58.1557 92.2929 58.2397 92.0525 58.2397Z" fill="white"/>
<path d="M98.1694 58.0455V48.3398H99.6066L102.81 53.0943L106.001 48.3398H107.438V58.0455H106.084V50.5307L102.797 55.398L99.5256 50.5465V58.0481H98.1694V58.0455Z" fill="white"/>
<path d="M111.783 58.2135C110.963 58.2135 110.328 58.0272 109.87 57.652C109.416 57.2767 109.186 56.7572 109.186 56.0934C109.186 55.3823 109.424 54.8392 109.897 54.4639C110.369 54.0887 111.031 53.9024 111.877 53.9024H113.727C113.672 53.3121 113.518 52.866 113.265 52.5643C113.011 52.2651 112.632 52.1129 112.125 52.1129C111.767 52.1129 111.456 52.1864 111.193 52.336C110.931 52.4829 110.712 52.7164 110.537 53.0287L109.377 52.5852C109.541 52.2704 109.75 51.9922 109.998 51.7456C110.247 51.5016 110.547 51.3074 110.895 51.1631C111.245 51.0188 111.655 50.9479 112.123 50.9479C112.776 50.9479 113.32 51.0765 113.753 51.3363C114.187 51.596 114.511 51.9686 114.728 52.4593C114.945 52.95 115.047 53.5534 115.039 54.275L115.026 58.0455H113.811L113.769 57.1587C113.565 57.4919 113.299 57.749 112.969 57.9353C112.64 58.119 112.243 58.2135 111.783 58.2135ZM111.895 57.0905C112.272 57.0905 112.598 57.0091 112.875 56.849C113.152 56.6864 113.367 56.4607 113.523 56.1695C113.68 55.8782 113.758 55.5424 113.758 55.1645V54.9415H112.24C111.605 54.9415 111.159 55.0412 110.9 55.2406C110.641 55.44 110.513 55.7155 110.513 56.0645C110.513 56.3872 110.636 56.6391 110.879 56.8202C111.122 56.9986 111.462 57.0905 111.895 57.0905Z" fill="white"/>
<path d="M115.925 58.0455L118.48 54.4534L116.105 51.1132H117.652L119.199 53.4013L120.732 51.1132H122.279L119.933 54.4692L122.447 58.0455H120.887L119.201 55.5213L117.503 58.0455H115.925Z" fill="white"/>
<path d="M124.236 49.6438C124.025 49.6438 123.839 49.5625 123.685 49.4024C123.528 49.2398 123.45 49.0535 123.45 48.8409C123.45 48.6179 123.528 48.4316 123.685 48.2794C123.842 48.1272 124.025 48.0511 124.236 48.0511C124.459 48.0511 124.644 48.1272 124.796 48.2794C124.947 48.4316 125.023 48.6179 125.023 48.8409C125.023 49.0535 124.947 49.2398 124.796 49.4024C124.644 49.5625 124.459 49.6438 124.236 49.6438ZM123.575 58.0455V51.1132H124.887V58.0455H123.575Z" fill="white"/>
<path d="M126.805 58.0455V51.1132H128.033L128.088 52.071C128.31 51.701 128.584 51.4229 128.916 51.2313C129.248 51.0424 129.63 50.9479 130.063 50.9479C130.615 50.9479 131.085 51.0739 131.472 51.3284C131.859 51.5829 132.138 51.9686 132.313 52.4855C132.514 51.987 132.802 51.6039 133.17 51.3415C133.539 51.0791 133.975 50.9453 134.482 50.9453C135.263 50.9453 135.877 51.2025 136.319 51.7141C136.76 52.2284 136.977 53.0156 136.967 54.0782V58.0429H135.668V54.4928C135.668 53.8631 135.6 53.3855 135.467 53.0575C135.334 52.7295 135.156 52.5013 134.937 52.3701C134.715 52.2415 134.458 52.1707 134.163 52.1628C133.648 52.1628 133.249 52.3622 132.969 52.7584C132.689 53.1573 132.548 53.7161 132.548 54.4351V58.0403H131.237V54.4902C131.237 53.8604 131.171 53.3829 131.043 53.0549C130.915 52.7269 130.738 52.4987 130.513 52.3675C130.288 52.2389 130.027 52.168 129.732 52.1602C129.217 52.1602 128.817 52.3596 128.537 52.7558C128.258 53.1546 128.117 53.7135 128.117 54.4325V58.0377H126.805V58.0455Z" fill="white"/>
<path d="M139.384 49.6438C139.172 49.6438 138.987 49.5625 138.833 49.4024C138.676 49.2398 138.597 49.0535 138.597 48.8409C138.597 48.6179 138.676 48.4316 138.833 48.2794C138.989 48.1272 139.172 48.0511 139.384 48.0511C139.606 48.0511 139.792 48.1272 139.943 48.2794C140.095 48.4316 140.17 48.6179 140.17 48.8409C140.17 49.0535 140.095 49.2398 139.943 49.4024C139.792 49.5625 139.606 49.6438 139.384 49.6438ZM138.723 58.0455V51.1132H140.035V58.0455H138.723Z" fill="white"/>
<path d="M141.608 58.0455V57.0327L145.501 52.2362H141.608V51.1132H147.171V52.0972L143.264 56.9225H147.199V58.0455H141.608Z" fill="white"/>
<path d="M151.741 58.2135C151.069 58.2135 150.476 58.0587 149.959 57.749C149.444 57.4394 149.039 57.0117 148.744 56.466C148.448 55.9202 148.302 55.2931 148.302 54.5794C148.302 53.8683 148.448 53.2386 148.744 52.6928C149.039 52.1471 149.446 51.7194 149.966 51.4097C150.486 51.1001 151.082 50.9453 151.754 50.9453C152.389 50.9453 152.945 51.1054 153.423 51.4229C153.902 51.743 154.278 52.1943 154.55 52.782C154.821 53.3698 154.957 54.0599 154.957 54.8549H149.642C149.689 55.5397 149.917 56.0724 150.327 56.4555C150.737 56.8386 151.242 57.0301 151.84 57.0301C152.3 57.0301 152.684 56.9225 152.992 56.7047C153.301 56.487 153.541 56.2114 153.716 55.8808L154.848 56.4082C154.662 56.7677 154.424 57.0852 154.129 57.3581C153.834 57.631 153.486 57.8409 153.086 57.9878C152.687 58.1374 152.24 58.2135 151.741 58.2135ZM149.726 53.8185H153.551C153.523 53.4485 153.426 53.1363 153.254 52.8817C153.084 52.6272 152.867 52.4304 152.606 52.2914C152.344 52.1523 152.052 52.0841 151.728 52.0841C151.414 52.0841 151.111 52.1523 150.816 52.2861C150.52 52.4199 150.275 52.6167 150.076 52.8765C149.88 53.1336 149.763 53.4485 149.726 53.8185Z" fill="white"/>
<path d="M162.676 58.2135C162.004 58.2135 161.411 58.0587 160.894 57.749C160.379 57.4394 159.974 57.0117 159.679 56.466C159.384 55.9202 159.237 55.2931 159.237 54.5794C159.237 53.8683 159.384 53.2386 159.679 52.6928C159.974 52.1471 160.382 51.7194 160.902 51.4097C161.422 51.1001 162.018 50.9453 162.689 50.9453C163.324 50.9453 163.881 51.1054 164.359 51.4229C164.837 51.743 165.213 52.1943 165.485 52.782C165.757 53.3698 165.893 54.0599 165.893 54.8549H160.578C160.625 55.5397 160.852 56.0724 161.262 56.4555C161.673 56.8386 162.177 57.0301 162.775 57.0301C163.235 57.0301 163.619 56.9225 163.928 56.7047C164.236 56.487 164.476 56.2114 164.651 55.8808L165.783 56.4082C165.597 56.7677 165.36 57.0852 165.064 57.3581C164.769 57.631 164.421 57.8409 164.022 57.9878C163.622 58.1374 163.172 58.2135 162.676 58.2135ZM160.661 53.8185H164.487C164.458 53.4485 164.361 53.1363 164.189 52.8817C164.019 52.6272 163.802 52.4304 163.541 52.2914C163.28 52.1523 162.987 52.0841 162.663 52.0841C162.349 52.0841 162.046 52.1523 161.751 52.2861C161.456 52.4199 161.21 52.6167 161.012 52.8765C160.816 53.1336 160.698 53.4485 160.661 53.8185Z" fill="white"/>
<path d="M169.402 58.2135C168.581 58.2135 167.946 58.0272 167.489 57.652C167.034 57.2767 166.804 56.7572 166.804 56.0934C166.804 55.3823 167.042 54.8392 167.515 54.4639C167.988 54.0887 168.649 53.9024 169.496 53.9024H171.346C171.291 53.3121 171.137 52.866 170.883 52.5643C170.63 52.2651 170.251 52.1129 169.744 52.1129C169.386 52.1129 169.075 52.1864 168.811 52.336C168.55 52.4829 168.33 52.7164 168.155 53.0287L166.995 52.5852C167.16 52.2704 167.369 51.9922 167.617 51.7456C167.865 51.5016 168.166 51.3074 168.513 51.1631C168.863 51.0188 169.274 50.9479 169.741 50.9479C170.395 50.9479 170.938 51.0765 171.372 51.3363C171.806 51.596 172.13 51.9686 172.347 52.4593C172.563 52.95 172.665 53.5534 172.657 54.275L172.644 58.0455H171.429L171.388 57.1587C171.184 57.4919 170.917 57.749 170.588 57.9353C170.256 58.119 169.862 58.2135 169.402 58.2135ZM169.511 57.0905C169.888 57.0905 170.214 57.0091 170.491 56.849C170.768 56.6864 170.983 56.4607 171.139 56.1695C171.296 55.8782 171.375 55.5424 171.375 55.1645V54.9415H169.856C169.221 54.9415 168.775 55.0412 168.516 55.2406C168.257 55.44 168.129 55.7155 168.129 56.0645C168.129 56.3872 168.252 56.6391 168.495 56.8202C168.741 56.9986 169.078 57.0905 169.511 57.0905Z" fill="white"/>
<path d="M174.317 58.0455V51.1132H175.628V52.3622C175.905 51.9266 176.261 51.6065 176.7 51.3992C177.136 51.1919 177.596 51.087 178.074 51.087V52.3359C177.661 52.3359 177.267 52.3989 176.893 52.5222C176.52 52.6482 176.216 52.8502 175.981 53.1336C175.746 53.4144 175.628 53.7974 175.628 54.2776V58.0481H174.317V58.0455Z" fill="white"/>
<path d="M179.135 58.0455V51.1132H180.363L180.418 52.1261C180.648 51.7482 180.946 51.457 181.309 51.2523C181.672 51.0503 182.09 50.9479 182.558 50.9479C183.102 50.9479 183.572 51.0581 183.974 51.2812C184.374 51.5042 184.682 51.8479 184.899 52.315C185.116 52.782 185.223 53.3934 185.223 54.1517V58.0482H183.912V54.4981C183.912 53.8683 183.841 53.3908 183.697 53.0628C183.554 52.7348 183.358 52.5065 183.104 52.3753C182.851 52.2468 182.558 52.1759 182.226 52.168C181.664 52.168 181.228 52.3675 180.915 52.7637C180.601 53.1625 180.444 53.7214 180.444 54.4403V58.0455H179.135Z" fill="white"/>
<path d="M187.627 49.6438C187.416 49.6438 187.23 49.5625 187.076 49.4024C186.919 49.2398 186.841 49.0535 186.841 48.8409C186.841 48.6179 186.919 48.4316 187.076 48.2794C187.233 48.1272 187.416 48.0511 187.627 48.0511C187.849 48.0511 188.035 48.1272 188.186 48.2794C188.338 48.4316 188.414 48.6179 188.414 48.8409C188.414 49.0535 188.338 49.2398 188.186 49.4024C188.032 49.5625 187.847 49.6438 187.627 49.6438ZM186.964 58.0455V51.1132H188.275V58.0455H186.964Z" fill="white"/>
<path d="M190.193 58.0455V51.1132H191.421L191.476 52.1261C191.706 51.7482 192.004 51.457 192.367 51.2523C192.73 51.0503 193.149 50.9479 193.616 50.9479C194.16 50.9479 194.63 51.0581 195.032 51.2812C195.432 51.5042 195.741 51.8479 195.957 52.315C196.174 52.782 196.281 53.3934 196.281 54.1517V58.0482H194.97V54.4981C194.97 53.8683 194.899 53.3908 194.755 53.0628C194.612 52.7348 194.416 52.5065 194.162 52.3753C193.909 52.2468 193.616 52.1759 193.284 52.168C192.723 52.168 192.286 52.3675 191.973 52.7637C191.659 53.1625 191.502 53.7214 191.502 54.4403V58.0455H190.193Z" fill="white"/>
<path d="M200.799 61C200.339 61 199.921 60.9554 199.542 60.8688C199.166 60.7796 198.847 60.6825 198.589 60.5697C198.33 60.4595 198.137 60.3624 198.009 60.2785L198.505 59.2105C198.625 59.284 198.795 59.3706 199.017 59.4677C199.239 59.5648 199.495 59.6487 199.791 59.7169C200.086 59.7852 200.412 59.8219 200.77 59.8219C201.194 59.8219 201.57 59.7353 201.902 59.5648C202.234 59.3942 202.492 59.1292 202.683 58.7671C202.871 58.4076 202.965 57.9458 202.965 57.3817V56.6601C202.725 57.0668 202.409 57.3843 202.012 57.61C201.617 57.8356 201.17 57.9485 200.671 57.9485C200.044 57.9485 199.501 57.8015 199.035 57.5129C198.57 57.2216 198.207 56.8149 197.946 56.2928C197.685 55.7706 197.551 55.1671 197.551 54.4823C197.551 53.7712 197.682 53.152 197.946 52.6246C198.207 52.0972 198.573 51.6879 199.035 51.3914C199.501 51.0949 200.047 50.9479 200.671 50.9479C201.168 50.9479 201.614 51.0608 202.012 51.2864C202.406 51.5121 202.725 51.8401 202.965 52.2651V51.1132H204.277V57.3528C204.277 58.1479 204.128 58.8143 203.828 59.3575C203.53 59.898 203.12 60.3073 202.6 60.5854C202.08 60.861 201.479 61 200.799 61ZM201.006 56.8412C201.392 56.8412 201.729 56.7362 202.014 56.5289C202.299 56.3217 202.526 56.0383 202.691 55.684C202.856 55.3272 202.939 54.9205 202.939 54.4561C202.939 53.9943 202.856 53.5876 202.691 53.236C202.526 52.8844 202.296 52.6089 202.006 52.4121C201.716 52.2127 201.379 52.1129 200.993 52.1129C200.588 52.1129 200.23 52.2127 199.921 52.4121C199.613 52.6115 199.37 52.887 199.197 53.236C199.022 53.5876 198.936 53.9943 198.936 54.4561C198.936 54.9179 199.025 55.3272 199.205 55.684C199.386 56.0409 199.629 56.3217 199.937 56.5289C200.243 56.7362 200.601 56.8412 201.006 56.8412Z" fill="white"/>
<path d="M208.57 58.2135C208.082 58.2135 207.648 58.14 207.266 57.9904C206.885 57.8435 206.561 57.6441 206.3 57.3948C206.038 57.1455 205.842 56.8622 205.712 56.5499L206.843 56.0514C206.989 56.3374 207.212 56.5735 207.507 56.7572C207.802 56.9435 208.129 57.0353 208.487 57.0353C208.881 57.0353 209.208 56.9619 209.467 56.8123C209.725 56.6654 209.853 56.4555 209.853 56.1878C209.853 55.9281 209.757 55.726 209.563 55.5791C209.37 55.4322 209.09 55.3115 208.722 55.2196L208.074 55.0543C207.428 54.8785 206.929 54.6161 206.577 54.2645C206.221 53.9129 206.046 53.5167 206.046 53.0733C206.046 52.3989 206.263 51.8768 206.694 51.5068C207.128 51.1369 207.765 50.9532 208.612 50.9532C209.028 50.9532 209.406 51.0135 209.751 51.1342C210.096 51.2549 210.392 51.4255 210.635 51.6485C210.878 51.8715 211.05 52.1339 211.152 52.4383L210.047 52.9368C209.937 52.6587 209.749 52.454 209.48 52.3202C209.213 52.1864 208.9 52.1182 208.542 52.1182C208.173 52.1182 207.883 52.1995 207.671 52.3596C207.46 52.5223 207.353 52.7453 207.353 53.0313C207.353 53.1887 207.441 53.3383 207.622 53.4826C207.802 53.6269 208.066 53.745 208.416 53.8368L209.161 54.0179C209.613 54.1281 209.984 54.2986 210.279 54.5243C210.574 54.7499 210.794 55.0044 210.943 55.2878C211.089 55.5686 211.165 55.8625 211.165 56.1695C211.165 56.5867 211.053 56.9487 210.828 57.2584C210.603 57.568 210.295 57.8068 209.903 57.9721C209.514 58.1295 209.069 58.2135 208.57 58.2135Z" fill="white"/>
<path d="M213.127 58.2397C212.897 58.2397 212.696 58.1557 212.526 57.9904C212.357 57.8251 212.27 57.6205 212.27 57.3817C212.27 57.1403 212.357 56.9383 212.526 56.7703C212.696 56.605 212.897 56.5211 213.127 56.5211C213.368 56.5211 213.572 56.605 213.741 56.7703C213.911 56.9356 213.997 57.1403 213.997 57.3817C213.997 57.6231 213.911 57.8251 213.741 57.9904C213.572 58.1557 213.368 58.2397 213.127 58.2397Z" fill="white"/>
<path d="M209.568 34.7349C208.006 32.565 206.464 31.0143 205.686 30.2822C205.39 30.0041 205.218 29.8571 205.215 29.8545L205.126 29.7705C201.928 26.4566 195.286 25.7954 192.54 25.6642V32.7644C194.789 32.893 196.762 33.1764 198.8 34.2207C199.401 34.5303 199.989 34.8898 200.541 35.2912C201.999 36.3486 203.279 37.7235 204.243 39.2716C204.379 39.4868 204.515 39.7203 204.659 39.9775C205.513 41.5151 206.132 43.2101 206.443 44.8789C206.584 45.6398 206.681 46.2354 206.746 46.7025H214C213.95 41.864 211.612 37.5687 209.568 34.7349Z" fill="white"/>
</svg>
