<svg width="23" height="18" viewBox="0 0 23 18" fill="none" xmlns="http://www.w3.org/2000/svg">
<path d="M1 7.75H22M19.75 16.75H17.5C17.3011 16.75 17.1103 16.671 16.9697 16.5303C16.829 16.3897 16.75 16.1989 16.75 16V13.75H6.25V16C6.25 16.1989 6.17098 16.3897 6.03033 16.5303C5.88968 16.671 5.69891 16.75 5.5 16.75H3.25C3.05109 16.75 2.86032 16.671 2.71967 16.5303C2.57902 16.3897 2.5 16.1989 2.5 16V7.75L5.30219 1.44531C5.36112 1.31276 5.45722 1.20015 5.57886 1.12111C5.70049 1.04207 5.84244 1 5.9875 1H17.0125C17.1576 1 17.2995 1.04207 17.4211 1.12111C17.5428 1.20015 17.6389 1.31276 17.6978 1.44531L20.5 7.75V16C20.5 16.1989 20.421 16.3897 20.2803 16.5303C20.1397 16.671 19.9489 16.75 19.75 16.75Z" stroke="#64676C" stroke-width="2" stroke-linecap="round" stroke-linejoin="round"/>
</svg>
