<svg width="20" height="20" viewBox="0 0 20 20" fill="none" xmlns="http://www.w3.org/2000/svg">
<g clip-path="url(#clip0_354_1265)">
<path d="M5 15.6249C6.03553 15.6249 6.875 14.7855 6.875 13.7499C6.875 12.7144 6.03553 11.8749 5 11.8749C3.96447 11.8749 3.125 12.7144 3.125 13.7499C3.125 14.7855 3.96447 15.6249 5 15.6249Z" stroke="#1A6FD4" stroke-width="1.25" stroke-linecap="round" stroke-linejoin="round"/>
<path d="M15 15.6249C16.0355 15.6249 16.875 14.7855 16.875 13.7499C16.875 12.7144 16.0355 11.8749 15 11.8749C13.9645 11.8749 13.125 12.7144 13.125 13.7499C13.125 14.7855 13.9645 15.6249 15 15.6249Z" stroke="#1A6FD4" stroke-width="1.25" stroke-linecap="round" stroke-linejoin="round"/>
<path d="M6.875 13.7499H13.125" stroke="#1A6FD4" stroke-width="1.25" stroke-linecap="round" stroke-linejoin="round"/>
<path d="M16.875 13.7499H18.75C18.9158 13.7499 19.0747 13.6841 19.1919 13.5669C19.3092 13.4497 19.375 13.2907 19.375 13.1249V9.99994C19.375 9.83418 19.3092 9.67521 19.1919 9.558C19.0747 9.44079 18.9158 9.37494 18.75 9.37494H16.25L12.6828 5.80775C12.5657 5.69076 12.4069 5.62502 12.2414 5.62494H3.45937C3.35658 5.625 3.2554 5.65041 3.16477 5.69893C3.07415 5.74744 2.99689 5.81756 2.93984 5.90306L0.625 9.37494V13.1249C0.625 13.2907 0.690848 13.4497 0.808058 13.5669C0.925268 13.6841 1.08424 13.7499 1.25 13.7499H3.125" stroke="#1A6FD4" stroke-width="1.25" stroke-linecap="round" stroke-linejoin="round"/>
<path d="M16.25 9.37494H0.625" stroke="#1A6FD4" stroke-width="1.25" stroke-linecap="round" stroke-linejoin="round"/>
</g>
<defs>
<clipPath id="clip0_354_1265">
<rect width="20" height="20" fill="white"/>
</clipPath>
</defs>
</svg>
