<svg width="20" height="20" viewBox="0 0 20 20" fill="none" xmlns="http://www.w3.org/2000/svg">
<g clip-path="url(#clip0_354_1291)">
<path d="M17.5 10.6251C17.182 14.4751 13.932 17.5001 10 17.5001C8.01088 17.5001 6.10322 16.7099 4.6967 15.3034C3.29018 13.8968 2.5 11.9892 2.5 10.0001C2.5 6.06803 5.525 2.81803 9.375 2.50006" stroke="#1A6FD4" stroke-width="1.25" stroke-linecap="round" stroke-linejoin="round"/>
<path d="M10 5.62506V10.0001H14.375" stroke="#1A6FD4" stroke-width="1.25" stroke-linecap="round" stroke-linejoin="round"/>
<path d="M12.5 3.75006C13.0178 3.75006 13.4375 3.33033 13.4375 2.81256C13.4375 2.29479 13.0178 1.87506 12.5 1.87506C11.9822 1.87506 11.5625 2.29479 11.5625 2.81256C11.5625 3.33033 11.9822 3.75006 12.5 3.75006Z" fill="#1A6FD4"/>
<path d="M15.3125 5.62506C15.8303 5.62506 16.25 5.20533 16.25 4.68756C16.25 4.16979 15.8303 3.75006 15.3125 3.75006C14.7947 3.75006 14.375 4.16979 14.375 4.68756C14.375 5.20533 14.7947 5.62506 15.3125 5.62506Z" fill="#1A6FD4"/>
<path d="M17.1875 8.43756C17.7053 8.43756 18.125 8.01783 18.125 7.50006C18.125 6.98229 17.7053 6.56256 17.1875 6.56256C16.6697 6.56256 16.25 6.98229 16.25 7.50006C16.25 8.01783 16.6697 8.43756 17.1875 8.43756Z" fill="#1A6FD4"/>
</g>
<defs>
<clipPath id="clip0_354_1291">
<rect width="20" height="20" fill="white"/>
</clipPath>
</defs>
</svg>
